# Blender 4.1.1
# www.blender.org
o Cube
v 1.000000 1.000000 -1.000000
v 1.000000 -1.000000 -1.000000
v 1.000000 1.000000 1.000000
v 1.000000 -1.000000 1.000000
v -1.000000 1.000000 -1.000000
v -1.000000 -1.000000 -1.000000
v -1.000000 1.000000 1.000000
v -1.000000 -1.000000 1.000000
v -1.000000 -1.000000 -0.705084
v -1.000000 -1.000000 0.693249
v 1.000000 1.000000 -0.705084
v 1.000000 1.000000 0.693249
v -1.000000 1.000000 0.693249
v -1.000000 1.000000 -0.705084
v 1.000000 -1.000000 0.693249
v 1.000000 -1.000000 -0.705084
v 0.705915 -1.000000 -1.000000
v -0.705915 -1.000000 -1.000000
v 0.705915 1.000000 1.000000
v -0.705915 1.000000 1.000000
v -0.705915 -1.000000 1.000000
v 0.705915 -1.000000 1.000000
v -0.705915 1.000000 -1.000000
v 0.705915 1.000000 -1.000000
v 0.705915 -1.000000 -0.705084
v -0.705915 -1.000000 -0.705084
v 0.705915 -1.000000 0.693249
v -0.705915 -1.000000 0.693249
v -0.705915 1.000000 -0.705084
v 0.705915 1.000000 -0.705084
v -0.705915 1.000000 0.693249
v 0.705915 1.000000 0.693249
v -0.705915 -0.571485 -0.705084
v 0.705915 -0.571485 -0.705084
v -0.705915 -0.571485 0.693249
v 0.705915 -0.571485 0.693249
vn -0.0000 1.0000 -0.0000
vn -0.0000 -0.0000 1.0000
vn -1.0000 -0.0000 -0.0000
vn -0.0000 -1.0000 -0.0000
vn 1.0000 -0.0000 -0.0000
vn -0.0000 -0.0000 -1.0000
vt 0.875000 0.665927
vt 0.791667 0.750000
vt 0.791667 0.665927
vt 0.625000 0.916667
vt 0.375000 1.000000
vt 0.375000 0.916667
vt 0.625000 0.167406
vt 0.375000 0.250000
vt 0.375000 0.167406
vt 0.375000 0.665927
vt 0.291667 0.750000
vt 0.291667 0.665927
vt 0.625000 0.665927
vt 0.375000 0.750000
vt 0.625000 0.416667
vt 0.375000 0.500000
vt 0.375000 0.416667
vt 0.625000 0.500000
vt 0.375000 0.582594
vt 0.625000 0.582594
vt 0.291667 0.582594
vt 0.291667 0.500000
vt 0.625000 0.000000
vt 0.375000 0.084073
vt 0.375000 0.000000
vt 0.625000 0.084073
vt 0.875000 0.500000
vt 0.791667 0.582594
vt 0.791667 0.500000
vt 0.875000 0.582594
vt 0.708333 0.582594
vt 0.708333 0.500000
vt 0.208333 0.582594
vt 0.125000 0.665927
vt 0.125000 0.582594
vt 0.208333 0.665927
vt 0.208333 0.500000
vt 0.125000 0.500000
vt 0.625000 0.250000
vt 0.375000 0.333333
vt 0.625000 0.333333
vt 0.125000 0.750000
vt 0.208333 0.750000
vt 0.625000 0.750000
vt 0.375000 0.833333
vt 0.625000 0.833333
vt 0.708333 0.665927
vt 0.708333 0.750000
vt 0.875000 0.750000
vt 0.625000 1.000000
s 0
f 13/1/1 20/2/1 31/3/1
f 20/4/2 8/5/2 21/6/2
f 14/7/3 6/8/3 9/9/3
f 15/10/4 22/11/4 27/12/4
f 12/13/5 4/14/5 15/10/5
f 24/15/6 2/16/6 17/17/6
f 1/18/5 16/19/5 2/16/5
f 11/20/5 15/10/5 16/19/5
f 2/16/4 25/21/4 17/22/4
f 16/19/4 27/12/4 25/21/4
f 7/23/3 10/24/3 8/25/3
f 13/26/3 9/9/3 10/24/3
f 5/27/1 29/28/1 23/29/1
f 14/30/1 31/3/1 29/28/1
f 30/31/1 12/13/1 11/20/1
f 31/3/5 33/28/5 29/28/5
f 24/32/1 11/20/1 1/18/1
f 23/29/1 30/31/1 24/32/1
f 26/33/4 10/34/4 9/35/4
f 25/21/4 28/36/4 26/33/4
f 18/37/4 9/35/4 6/38/4
f 17/22/4 26/33/4 18/37/4
f 5/39/6 18/40/6 6/8/6
f 23/41/6 17/17/6 18/40/6
f 28/36/4 8/42/4 10/34/4
f 27/12/4 21/43/4 28/36/4
f 3/44/2 22/45/2 4/14/2
f 19/46/2 21/6/2 22/45/2
f 32/47/1 3/44/1 12/13/1
f 31/3/1 19/48/1 32/47/1
f 33/28/1 36/47/1 34/31/1
f 32/47/6 35/3/6 31/3/6
f 29/28/2 34/31/2 30/31/2
f 30/31/3 36/47/3 32/47/3
f 13/1/1 7/49/1 20/2/1
f 20/4/2 7/50/2 8/5/2
f 14/7/3 5/39/3 6/8/3
f 15/10/4 4/14/4 22/11/4
f 12/13/5 3/44/5 4/14/5
f 24/15/6 1/18/6 2/16/6
f 1/18/5 11/20/5 16/19/5
f 11/20/5 12/13/5 15/10/5
f 2/16/4 16/19/4 25/21/4
f 16/19/4 15/10/4 27/12/4
f 7/23/3 13/26/3 10/24/3
f 13/26/3 14/7/3 9/9/3
f 5/27/1 14/30/1 29/28/1
f 14/30/1 13/1/1 31/3/1
f 30/31/1 32/47/1 12/13/1
f 31/3/5 35/3/5 33/28/5
f 24/32/1 30/31/1 11/20/1
f 23/29/1 29/28/1 30/31/1
f 26/33/4 28/36/4 10/34/4
f 25/21/4 27/12/4 28/36/4
f 18/37/4 26/33/4 9/35/4
f 17/22/4 25/21/4 26/33/4
f 5/39/6 23/41/6 18/40/6
f 23/41/6 24/15/6 17/17/6
f 28/36/4 21/43/4 8/42/4
f 27/12/4 22/11/4 21/43/4
f 3/44/2 19/46/2 22/45/2
f 19/46/2 20/4/2 21/6/2
f 32/47/1 19/48/1 3/44/1
f 31/3/1 20/2/1 19/48/1
f 33/28/1 35/3/1 36/47/1
f 32/47/6 36/47/6 35/3/6
f 29/28/2 33/28/2 34/31/2
f 30/31/3 34/31/3 36/47/3
