# Blender 4.1.1
# www.blender.org
o Cube
v -2.400122 -0.002980 -2.300000
v -2.401240 0.897019 -2.300000
v -2.400122 -0.002980 2.300000
v -2.401240 0.897019 2.300000
v 2.399874 0.002980 -2.300000
v 2.398757 0.902979 -2.300000
v 2.399874 0.002980 2.300000
v 2.398757 0.902979 2.300000
v 2.398757 0.902979 -0.256225
v 2.398757 0.902979 0.231464
v -2.400122 -0.002980 -0.256225
v -2.400122 -0.002980 0.231464
v 2.399874 0.002980 0.231464
v 2.399874 0.002980 -0.256225
v -2.401240 0.897019 0.231464
v -2.401240 0.897019 -0.256225
v -0.265319 0.899671 -2.300000
v 0.254118 0.900316 -2.300000
v -0.264202 -0.000328 2.300000
v 0.255235 0.000317 2.300000
v 0.254118 0.900316 2.300000
v -0.265319 0.899671 2.300000
v 0.255235 0.000317 -2.300000
v -0.264202 -0.000328 -2.300000
v -0.265319 0.899671 -0.256225
v 0.254118 0.900316 -0.256225
v -0.265319 0.899671 0.231464
v 0.254118 0.900316 0.231464
v 0.255235 0.000317 -0.256225
v -0.264202 -0.000328 -0.256225
v 0.255235 0.000317 0.231464
v -0.264202 -0.000328 0.231464
v -0.269289 4.096619 -0.256225
v 0.250149 4.097264 -0.256225
v -0.269289 4.096619 0.231464
v 0.250149 4.097264 0.231464
vn 0.0012 -1.0000 -0.0000
vn -0.0000 -0.0000 1.0000
vn 1.0000 0.0012 -0.0000
vn -0.0012 1.0000 -0.0000
vn -1.0000 -0.0012 -0.0000
vn -0.0000 -0.0000 -1.0000
vt 0.875000 0.665994
vt 0.791440 0.750000
vt 0.791440 0.665994
vt 0.625000 0.916440
vt 0.375000 1.000000
vt 0.375000 0.916440
vt 0.625000 0.167340
vt 0.375000 0.250000
vt 0.375000 0.167340
vt 0.375000 0.665994
vt 0.291894 0.750000
vt 0.291894 0.665994
vt 0.625000 0.665994
vt 0.375000 0.750000
vt 0.625000 0.416894
vt 0.375000 0.500000
vt 0.375000 0.416894
vt 0.625000 0.500000
vt 0.375000 0.582660
vt 0.625000 0.582660
vt 0.291894 0.582660
vt 0.291894 0.500000
vt 0.625000 0.000000
vt 0.375000 0.084006
vt 0.375000 0.000000
vt 0.625000 0.084006
vt 0.875000 0.500000
vt 0.791440 0.582660
vt 0.791440 0.500000
vt 0.875000 0.582660
vt 0.708106 0.582660
vt 0.708106 0.665994
vt 0.708106 0.500000
vt 0.208560 0.582660
vt 0.125000 0.665994
vt 0.125000 0.582660
vt 0.208560 0.665994
vt 0.208560 0.500000
vt 0.125000 0.500000
vt 0.625000 0.250000
vt 0.375000 0.333560
vt 0.625000 0.333560
vt 0.125000 0.750000
vt 0.208560 0.750000
vt 0.625000 0.750000
vt 0.375000 0.833106
vt 0.625000 0.833106
vt 0.708106 0.750000
vt 0.875000 0.750000
vt 0.625000 1.000000
s 0
f 13/1/1 20/2/1 31/3/1
f 20/4/2 8/5/2 21/6/2
f 14/7/3 6/8/3 9/9/3
f 15/10/4 22/11/4 27/12/4
f 12/13/5 4/14/5 15/10/5
f 24/15/6 2/16/6 17/17/6
f 1/18/5 16/19/5 2/16/5
f 11/20/5 15/10/5 16/19/5
f 2/16/4 25/21/4 17/22/4
f 16/19/4 27/12/4 25/21/4
f 7/23/3 10/24/3 8/25/3
f 13/26/3 9/9/3 10/24/3
f 5/27/1 29/28/1 23/29/1
f 14/30/1 31/3/1 29/28/1
f 30/31/1 12/13/1 11/20/1
f 29/28/1 32/32/1 30/31/1
f 24/33/1 11/20/1 1/18/1
f 23/29/1 30/31/1 24/33/1
f 26/34/4 10/35/4 9/36/4
f 28/37/2 35/12/2 27/12/2
f 18/38/4 9/36/4 6/39/4
f 17/22/4 26/34/4 18/38/4
f 5/40/6 18/41/6 6/8/6
f 23/42/6 17/17/6 18/41/6
f 28/37/4 8/43/4 10/35/4
f 27/12/4 21/44/4 28/37/4
f 3/45/2 22/46/2 4/14/2
f 19/47/2 21/6/2 22/46/2
f 32/32/1 3/45/1 12/13/1
f 31/3/1 19/48/1 32/32/1
f 33/21/4 36/37/4 34/34/4
f 25/21/6 34/34/6 26/34/6
f 26/34/3 36/37/3 28/37/3
f 27/12/5 33/21/5 25/21/5
f 13/1/1 7/49/1 20/2/1
f 20/4/2 7/50/2 8/5/2
f 14/7/3 5/40/3 6/8/3
f 15/10/4 4/14/4 22/11/4
f 12/13/5 3/45/5 4/14/5
f 24/15/6 1/18/6 2/16/6
f 1/18/5 11/20/5 16/19/5
f 11/20/5 12/13/5 15/10/5
f 2/16/4 16/19/4 25/21/4
f 16/19/4 15/10/4 27/12/4
f 7/23/3 13/26/3 10/24/3
f 13/26/3 14/7/3 9/9/3
f 5/27/1 14/30/1 29/28/1
f 14/30/1 13/1/1 31/3/1
f 30/31/1 32/32/1 12/13/1
f 29/28/1 31/3/1 32/32/1
f 24/33/1 30/31/1 11/20/1
f 23/29/1 29/28/1 30/31/1
f 26/34/4 28/37/4 10/35/4
f 28/37/2 36/37/2 35/12/2
f 18/38/4 26/34/4 9/36/4
f 17/22/4 25/21/4 26/34/4
f 5/40/6 23/42/6 18/41/6
f 23/42/6 24/15/6 17/17/6
f 28/37/4 21/44/4 8/43/4
f 27/12/4 22/11/4 21/44/4
f 3/45/2 19/47/2 22/46/2
f 19/47/2 20/4/2 21/6/2
f 32/32/1 19/48/1 3/45/1
f 31/3/1 20/2/1 19/48/1
f 33/21/4 35/12/4 36/37/4
f 25/21/6 33/21/6 34/34/6
f 26/34/3 34/34/3 36/37/3
f 27/12/5 35/12/5 33/21/5
