# Blender 4.1.1
# www.blender.org
mtllib wd.mtl
o Cube
v 1.000000 1.000000 -2.331365
v 1.000000 -1.000000 -1.000000
v 1.000000 1.942093 1.000000
v 1.000000 -1.000000 1.000000
v -1.000000 1.000000 -1.000000
v -1.000000 -1.000000 -1.000000
v -0.093033 1.712926 0.619883
v -0.838831 0.413208 1.298945
v -1.938886 -0.279719 -0.873363
v -1.777717 1.133489 1.425582
v -1.031919 2.433208 0.746521
v -1.938886 1.720281 -0.873363
vn -0.1582 0.9448 -0.2868
vn 0.0341 0.1521 0.9878
vn -0.1337 -0.0000 -0.9910
vn -0.3075 -0.9005 0.3075
vn 1.0000 -0.0000 -0.0000
vn -0.3011 -0.3011 -0.9048
vn -0.9611 0.2439 0.1296
vn 0.3349 0.2782 0.9003
vn -0.4920 -0.7259 0.4807
vn 0.4556 0.6922 -0.5597
vt 0.625000 0.500000
vt 0.875000 0.500000
vt 0.875000 0.750000
vt 0.625000 0.750000
vt 0.375000 0.750000
vt 0.625000 1.000000
vt 0.375000 1.000000
vt 0.625000 0.250000
vt 0.375000 0.250000
vt 0.125000 0.500000
vt 0.375000 0.500000
vt 0.125000 0.750000
vt 0.375000 0.000000
vt 0.625000 0.000000
s 0
usemtl Material
f 1/1/1 5/2/1 7/3/1 3/4/1
f 4/5/2 3/4/2 7/6/2 8/7/2
f 5/8/3 6/9/3 9/9/3 12/8/3
f 6/10/4 2/11/4 4/5/4 8/12/4
f 2/11/5 1/1/5 3/4/5 4/5/5
f 6/9/6 5/8/6 1/1/6 2/11/6
f 10/13/7 11/14/7 12/8/7 9/9/7
f 8/7/8 7/6/8 11/6/8 10/7/8
f 6/10/9 8/12/9 10/12/9 9/10/9
f 7/3/10 5/2/10 12/2/10 11/3/10
